<?xml version="1.0" encoding="utf-8"?>
<!-- Generator: Adobe Illustrator 26.0.3, SVG Export Plug-In . SVG Version: 6.00 Build 0)  -->
<svg version="1.0" id="katman_1" xmlns="http://www.w3.org/2000/svg" xmlns:xlink="http://www.w3.org/1999/xlink" x="0px" y="0px"
	 viewBox="0 0 800 600" style="enable-background:new 0 0 800 600;" xml:space="preserve">
<style type="text/css">
	.st0{fill:#24B4A6;}
</style>
<path class="st0" d="M501.6,248.2c-17.1-0.1-30.9,13.7-30.9,30.7c-0.1,17.1,13.7,30.9,30.7,30.9c17.1,0.1,30.9-13.7,30.9-30.7
	c0.1-17-13.5-30.8-30.5-30.9C501.8,248.2,501.7,248.2,501.6,248.2z M501.6,302.7C488.5,302.6,478,292,478,279
	c0.1-13.1,10.7-23.6,23.8-23.6c13.1,0.1,23.6,10.7,23.6,23.8C525.2,292.3,514.6,302.7,501.6,302.7z"/>
<path class="st0" d="M314.3,279.4v-1.9c0-5.3-1.3-10.6-3.9-15.2c-2.9-5.5-8-9.7-13.9-11.6c-4-1.2-8.2-1.6-12.4-1.1
	c-4.5,0.3-8.9,2.1-12.4,4.8c-8.4,6.5-13,16.9-12,27.5c0.6,6.8,3.5,13.1,8.1,18.1c4.4,5,10.6,8.1,17.2,8.8c3.7,0.4,7.4,0.2,10.9-0.4
	c4.3-0.9,8.4-2.6,12-5.2c1.3-1,2.4-2.1,3.5-3.2c1.1-1.2,0.9-3-0.3-4.1c-0.1-0.1-0.2-0.2-0.3-0.2c-1.4-1.1-3.4-0.9-4.5,0.4
	c-1.9,2.3-4.5,4-7.5,5c-4.1,1.7-8.7,2.3-13.1,1.5c-5-0.5-9.5-2.9-12.9-6.5c-3.6-4-5.8-8.9-6.5-14.2c-0.1-0.6-0.1-1.3,0-1.9h48.2
	L314.3,279.4z M267.2,271.4c1.2-3.9,3.4-7.5,6.3-10.3c3.1-2.9,7.2-4.6,11.6-5c2.8-0.3,5.7-0.1,8.5,0.6c4.3,1.1,8,3.8,10.5,7.5
	c1.7,2.6,2.9,5.5,3.5,8.5c0,0.3,0.1,0.6,0.2,0.9H267C266.8,272.8,266.9,272,267.2,271.4z"/>
<path class="st0" d="M238,261.8c-2.8-5.1-7.5-9-13.1-10.7c-4.1-1.2-8.4-1.6-12.7-1.3c-3.6,0.3-7.1,1.4-10.3,3.2
	c-5,2.8-8.9,7-11.1,12.2c-2.7,5.4-3.8,11.5-3,17.4c0.6,5.6,2.8,11,6.3,15.5c4.4,6.1,11.2,9.9,18.7,10.7c3.7,0.4,7.4,0.2,10.9-0.4
	c4.5-0.8,8.9-2.7,12.4-5.6c1.1-0.9,2.2-1.9,3-3c1.1-1.4,0.9-3.5-0.5-4.5c0,0-0.1,0-0.1-0.1c-1.3-1.1-3.2-0.9-4.3,0.4
	c-1.6,1.8-3.7,3.4-5.8,4.3c-4.5,2.2-9.6,2.9-14.6,2.2c-5-0.5-9.5-2.9-12.9-6.5c-3.7-4.1-5.9-9.2-6.5-14.6v-1.5h48v-0.3
	C242.7,273,241.2,267,238,261.8z M194.9,273.1c0-0.4,0.2-0.6,0.2-1.1c1-3.8,2.9-7.4,5.6-10.3c2.9-3.1,6.8-5.2,11.1-5.6
	c3-0.4,6.2-0.4,9.2,0.2c4.5,1.1,8.5,3.8,11.1,7.7c1.7,2.6,2.9,5.5,3.5,8.5v0.4h-40.8V273.1z"/>
<path class="st0" d="M720.2,295c-1.3-1.1-3.2-0.9-4.3,0.4c-1.6,1.8-3.6,3.2-5.6,4.3c-4.5,2.2-9.6,3-14.6,2.4
	c-5.5-0.6-10.6-3.4-14.2-7.7c-3-3.6-4.9-8-5.4-12.7c-0.2-0.9-0.2-1.7-0.2-2.6h48.4c0-1.6,0-3.4-0.2-5c-0.5-5-2.3-9.7-5-13.9
	c-3.1-4.6-7.7-8.1-13.1-9.8c-4-1.1-8.1-1.3-12.2-0.9c-4.1,0.4-8,1.8-11.4,4.1c-4.4,3.1-8,7.5-10.3,12.4c-2.3,5.1-3.1,10.6-2.6,16.1
	c0.8,6.7,3.8,13,8.5,17.8c4.4,4.8,10.5,7.7,17,8.2c3.5,0.4,6.9,0.2,10.3-0.4c4.3-0.8,8.4-2.5,12-5.2c1.3-1.1,2.6-2.2,3.7-3.5
	C721.9,297.9,721.6,295.9,720.2,295z M676.6,272.7c1.1-5,3.9-9.4,7.9-12.7c3-2.4,6.7-3.8,10.5-4.1c3.2-0.2,6.5,0,9.6,0.9
	c3.9,1.3,7.1,3.8,9.4,7.2c1.7,2.6,2.9,5.5,3.5,8.5v0.6h-40.5C676.6,273.1,676.6,272.9,676.6,272.7z"/>
<path class="st0" d="M451.1,271.8V304c0,0.4,0,0.9-0.2,1.3c-0.4,1.5-1.9,2.6-3.5,2.4c-1.5-0.2-2.7-1.5-2.8-3v-30.5
	c0.1-2.9-0.3-5.9-1.3-8.8c-1.6-5.1-6.1-8.8-11.4-9.4c-3.6-0.8-7.4-0.3-10.7,1.1c-5.1,2.2-9,6.6-10.5,12c-0.2,0.4-0.2,1-0.2,1.5v34.1
	c0,1.6-1.3,3-2.9,3h-0.1c-1.6,0-3-1.2-3.2-2.8v-75.7c0.3-1.5,1.7-2.6,3.2-2.6c1.6,0,2.9,1.2,3,2.8v28.8h0.2c0-0.2,0.2-0.2,0.2-0.4
	c3.8-4.4,9.2-7.4,15-8.1c3.6-0.4,7.2-0.2,10.7,0.9c6.9,1.9,12.2,7.7,13.5,14.8C450.7,267.5,451.1,269.7,451.1,271.8z"/>
<path class="st0" d="M107.6,308.9c-17.6-0.2-32,13.8-32.2,31.4c-0.2,17.6,13.8,32,31.4,32.2c17.6,0.2,32-13.8,32.2-31.4
	c0-0.1,0-0.3,0-0.4c0.2-17.4-13.7-31.7-31.1-31.8C107.8,308.9,107.7,308.9,107.6,308.9z M107.2,366.7c-14.4-0.2-25.7-12-25.5-26.4
	c0.2-14.4,12-25.7,26.4-25.5c14.3,0.2,25.6,11.9,25.5,26.2C133.4,355.3,121.6,366.8,107.2,366.7z"/>
<path class="st0" d="M380.1,304.3c0.1,1.6-1,3.1-2.6,3.5c-1.7,0.3-3.4-0.8-3.7-2.5c0-0.1,0-0.2,0-0.3v-30.3c0.1-2.9-0.3-5.7-1.1-8.5
	c-1-3.7-3.5-6.7-6.7-8.5c-1.6-0.8-3.5-1.3-5.2-1.5c-3.4-0.5-6.8-0.1-10.1,1.1c-5.3,2.2-9.4,6.7-10.9,12.2c-0.2,0.4-0.2,0.9-0.2,1.3
	v34.5c-0.2,1.6-1.6,2.7-3.2,2.6c-1.6,0-3-1.3-3-2.9v-0.1v-51.3c0.1-1.7,1.5-3,3.2-3c1.7,0,3,1.3,3,3c0,0.1,0,0.2,0,0.2v4.8l0.6-0.6
	c3.8-4.3,9.1-7.1,14.8-7.9c3.8-0.5,7.7-0.1,11.4,1.1c6.6,2.1,11.5,7.5,12.9,14.2c0.4,2.1,0.6,4,0.6,6.1
	C380.1,282.3,380.1,293.3,380.1,304.3z"/>
<path class="st0" d="M598.1,304v1.1c-0.3,1.5-1.7,2.6-3.2,2.6c-1.6,0-2.9-1.2-3-2.8v-4.8h-0.2c-0.2,0.2-0.4,0.4-0.4,0.6
	c-3.6,4.3-8.6,7-14.2,7.7c-3.7,0.6-7.6,0.4-11.1-0.6c-7-1.8-12.4-7.5-14-14.6c-0.4-2.2-0.6-4.3-0.6-6.5v-32.4
	c-0.1-1.2,0.4-2.3,1.3-3c0.9-0.8,2.2-1,3.2-0.4c1.1,0.4,1.8,1.4,1.9,2.6v30.9c0,2.9,0.4,5.9,1.3,8.8c1.6,4.9,5.8,8.3,10.9,9.2
	c3.8,0.8,7.8,0.3,11.4-1.1c5.1-2.3,9-6.8,10.3-12.2c0.2-0.5,0.2-1,0.2-1.5V253c0.4-1.5,1.9-2.6,3.5-2.4c1.5,0.2,2.7,1.5,2.8,3v0.6
	C598.1,270.7,598.1,287.5,598.1,304z"/>
<path class="st0" d="M101.8,250.4c-14.5,0-26.2,11.7-26.2,26.2c0,14.5,11.7,26.2,26.2,26.2c14.5,0,26.2-11.7,26.2-26.2
	C127.8,262.2,116.2,250.5,101.8,250.4z M101.8,296.9c-11.2-0.1-20.3-9.2-20.3-20.5c0.1-11.2,9.2-20.3,20.5-20.3
	c11.2,0.1,20.3,9.2,20.3,20.5C122.1,287.8,113,296.9,101.8,296.9z"/>
<path class="st0" d="M650.2,305.1c-2.6,1.7-5.6,2.8-8.8,3.2c-1.3,0.2-2.8,0.2-3.5,0.4c-4.5,0.2-9-1-12.9-3.2
	c-2.9-1.7-5.2-4.2-6.7-7.2c-0.4-1-0.6-2.1-0.4-3c0.4-1.7,2.2-2.8,3.9-2.4c0.5,0.1,1,0.3,1.4,0.6c0.6,0.3,1.1,0.9,1.3,1.5
	c2.2,4.2,6.4,7,11.1,7.5c3.2,0.4,6.5-0.2,9.4-1.7c1-0.4,1.9-1.1,2.6-1.9c2.6-2.4,3.4-6.2,1.7-9.4c-0.8-1.6-1.9-3-3.5-4.1
	c-2.2-1.5-4.6-2.7-7.2-3.5c-1.9-0.6-3.7-1.1-5.6-1.7c-3-1.1-5.8-2.7-8.2-4.8c-2.7-2.6-4.3-6.1-4.5-9.8c-0.2-2.2,0-4.3,0.6-6.3
	c1.4-3.6,4.2-6.5,7.9-7.9c3.4-1.5,7-2.1,10.7-1.5c3,0.2,6,1.3,8.5,3c2.4,1.7,4.3,3.9,5.6,6.5c0.4,0.8,0.4,1.6,0.2,2.4
	c-0.3,1.2-1.3,2.2-2.6,2.4c-1.3,0.1-2.6-0.4-3.2-1.5c-0.2-0.2-0.2-0.4-0.4-0.6c-1.6-3.1-4.8-5.4-8.2-5.8c-2.5-0.3-4.9-0.1-7.2,0.9
	c-3.9,1.3-6.2,5.4-4.9,9.4c0,0.1,0,0.1,0.1,0.2c0.5,2.1,1.6,3.9,3.2,5.2c1.8,1.5,4,2.6,6.3,3.2c1.9,0.6,3.9,1.1,5.8,1.7
	c2.8,0.9,5.4,2.2,7.7,3.9c3.2,2.3,5.3,5.7,5.8,9.6C657.8,296,655.3,302.1,650.2,305.1z"/>
<path class="st0" d="M178.2,254.8c-0.4,1.7-2.2,2.8-3.9,2.6c-1.7-0.3-3.5-0.5-5.2-0.4c-5.7,0.4-10.7,3.8-13.5,8.8
	c-1.1,1.7-1.5,3.7-1.5,5.6V304c0,0.5,0,1.1-0.2,1.5c-0.5,1.4-1.8,2.3-3.2,2.2c-1.5,0-2.8-1.1-3-2.6v-50.9c0-0.5,0-1.1,0.2-1.5
	c0.4-1.5,1.9-2.4,3.5-2.2c1.5,0.2,2.7,1.5,2.8,3v5h0.2l0.6-0.6c2.9-3.6,7-6.2,11.6-7.2c3.1-0.5,6.3-0.5,9.4,0.2
	C177.6,251.3,178.7,253,178.2,254.8z"/>
<path class="st0" d="M128.2,243.7c0,3-2.5,5.4-5.4,5.4c-2.9,0-5.4-2.5-5.4-5.4c0-3,2.5-5.4,5.4-5.4
	C125.7,238.2,128.1,240.6,128.2,243.7C128.2,243.6,128.2,243.6,128.2,243.7z"/>
</svg>
